<svg width="48" height="48" viewBox="0 0 48 48" fill="none" xmlns="http://www.w3.org/2000/svg">
<path d="M11.2 39.95C9.56667 39.95 8.175 39.3833 7.025 38.25C5.875 37.1167 5.3 35.7167 5.3 34.05H5C4.16667 34.05 3.45833 33.7583 2.875 33.175C2.29167 32.5917 2 31.8833 2 31.05V11C2 10.2 2.3 9.5 2.9 8.9C3.5 8.3 4.2 8 5 8H30.95C31.7833 8 32.4917 8.29167 33.075 8.875C33.6583 9.45833 33.95 10.1667 33.95 11V16.35H38.45C38.7167 16.35 38.95 16.4 39.15 16.5C39.35 16.6 39.5167 16.75 39.65 16.95L45.7 25C45.8 25.1333 45.875 25.275 45.925 25.425C45.975 25.575 46 25.7333 46 25.9V32.55C46 32.9833 45.8583 33.3417 45.575 33.625C45.2917 33.9083 44.9333 34.05 44.5 34.05H42.45C42.45 35.7167 41.875 37.1167 40.725 38.25C39.575 39.3833 38.1833 39.95 36.55 39.95C34.9167 39.95 33.525 39.3833 32.375 38.25C31.225 37.1167 30.65 35.7167 30.65 34.05H17.1C17.1 35.7167 16.525 37.1167 15.375 38.25C14.225 39.3833 12.8333 39.95 11.2 39.95ZM11.2 36.95C12 36.95 12.6833 36.6667 13.25 36.1C13.8167 35.5333 14.1 34.85 14.1 34.05C14.1 33.25 13.8167 32.5667 13.25 32C12.6833 31.4333 12 31.15 11.2 31.15C10.4 31.15 9.71667 31.4333 9.15 32C8.58333 32.5667 8.3 33.25 8.3 34.05C8.3 34.85 8.58333 35.5333 9.15 36.1C9.71667 36.6667 10.4 36.95 11.2 36.95ZM36.55 36.95C37.35 36.95 38.0333 36.6667 38.6 36.1C39.1667 35.5333 39.45 34.85 39.45 34.05C39.45 33.25 39.1667 32.5667 38.6 32C38.0333 31.4333 37.35 31.15 36.55 31.15C35.75 31.15 35.0667 31.4333 34.5 32C33.9333 32.5667 33.65 33.25 33.65 34.05C33.65 34.85 33.9333 35.5333 34.5 36.1C35.0667 36.6667 35.75 36.95 36.55 36.95ZM33.95 26.75H43.25L37.7 19.35H33.95V26.75Z" fill="#FE8A00"/>
</svg>
