<svg width="184" height="48" viewBox="0 0 184 48" fill="none" xmlns="http://www.w3.org/2000/svg">
<path d="M78.2183 5.53516V19.0352C78.2183 19.6328 77.6909 20.1602 77.0933 20.1602C76.4604 20.1602 75.9683 19.6328 75.9683 19.0352V9.22656L71.2573 16.2578C70.8354 16.8906 69.8159 16.8906 69.394 16.2578L64.7183 9.22656V19C64.7183 19.6328 64.1909 20.125 63.5933 20.125C62.9604 20.125 62.4683 19.6328 62.4683 19V5.5C62.4683 5.00781 62.7847 4.58594 63.2417 4.44531C63.7339 4.30469 64.2261 4.48047 64.5073 4.90234L70.3433 13.6211L76.144 4.90234C76.4253 4.48047 76.9175 4.30469 77.4097 4.44531C77.8667 4.58594 78.2183 5.00781 78.2183 5.53516Z" fill="#6CC5E9"/>
<path d="M93.1583 5.53516V13.4453C93.1583 17.1016 90.0997 20.1602 86.4083 20.1602C82.6817 20.1602 79.6583 17.1367 79.6583 13.4453V5.53516C79.6583 4.90234 80.1504 4.41016 80.7833 4.41016C81.3809 4.41016 81.9083 4.90234 81.9083 5.53516V13.4453C81.9083 15.9062 83.9122 17.9102 86.4083 17.9102C88.8692 17.9102 90.9083 15.9062 90.9083 13.4453V5.53516C90.9083 4.90234 91.4004 4.41016 92.0333 4.41016C92.6309 4.41016 93.1583 4.90234 93.1583 5.53516Z" fill="#6CC5E9"/>
<path d="M108.098 5.53516V19.0352C108.098 19.4922 107.782 19.9141 107.325 20.0898C107.219 20.125 107.079 20.125 106.973 20.125C106.622 20.125 106.305 19.9844 106.094 19.7383L96.8483 8.62891V19C96.8483 19.6328 96.3209 20.125 95.7233 20.125C95.0904 20.125 94.5983 19.6328 94.5983 19V5.5C94.5983 5.04297 94.8795 4.62109 95.3365 4.44531C95.7584 4.30469 96.2506 4.44531 96.567 4.79687L105.848 15.9062V5.5C105.848 4.90234 106.34 4.375 106.973 4.375C107.571 4.375 108.098 4.90234 108.098 5.53516Z" fill="#6CC5E9"/>
<path d="M115.163 4.41016H110.663C110.03 4.41016 109.538 4.90234 109.538 5.53516V19.0352C109.538 19.6328 110.03 20.1602 110.663 20.1602H115.163C119.487 20.1602 123.038 16.6094 123.038 12.2852C123.038 7.92578 119.487 4.41016 115.163 4.41016ZM115.163 17.875H111.788V6.625H115.163C118.257 6.625 120.788 9.15625 120.788 12.25C120.788 15.3086 118.257 17.875 115.163 17.875Z" fill="#6CC5E9"/>
<path d="M132.353 4.41016C127.994 4.41016 124.478 7.92578 124.478 12.2852C124.478 16.6094 127.994 20.1602 132.353 20.1602C136.677 20.1602 140.228 16.6094 140.228 12.2852C140.228 7.92578 136.677 4.41016 132.353 4.41016ZM132.353 17.875C129.224 17.875 126.728 15.3789 126.728 12.25C126.728 9.15625 129.224 6.66016 132.353 6.66016C135.447 6.66016 137.978 9.19141 137.978 12.25C137.978 15.3437 135.447 17.875 132.353 17.875Z" fill="#6CC5E9"/>
<path d="M78.2183 29.5352V43.0352C78.2183 43.6328 77.6909 44.1602 77.0933 44.1602C76.4604 44.1602 75.9683 43.6328 75.9683 43.0352V33.2266L71.2573 40.2578C70.8354 40.8906 69.8159 40.8906 69.394 40.2578L64.7183 33.2266V43C64.7183 43.6328 64.1909 44.125 63.5933 44.125C62.9604 44.125 62.4683 43.6328 62.4683 43V29.5C62.4683 29.0078 62.7847 28.5859 63.2417 28.4453C63.7339 28.3047 64.2261 28.4805 64.5073 28.9023L70.3433 37.6211L76.144 28.9023C76.4253 28.4805 76.9175 28.3047 77.4097 28.4453C77.8667 28.5859 78.2183 29.0078 78.2183 29.5352Z" fill="#6CC5E9"/>
<path d="M93.0528 42.5781L87.4278 29.0781C87.252 28.6562 86.8301 28.4102 86.4083 28.4102C85.9512 28.4102 85.5294 28.6562 85.3536 29.0781L79.7286 42.5781C79.4825 43.1758 79.7637 43.8086 80.3262 44.0547C80.9239 44.3008 81.5567 44.0195 81.8028 43.457L82.9278 40.7852H89.8536L90.9786 43.457C91.1544 43.8789 91.5762 44.1602 92.0333 44.1602C92.1739 44.1602 92.3145 44.125 92.4551 44.0547C93.0176 43.8086 93.2989 43.1406 93.0528 42.5781ZM83.8419 38.5L86.4083 32.4531L88.9395 38.5H83.8419Z" fill="#6CC5E9"/>
<path d="M106.868 40.6094C106.657 41.875 105.989 42.8945 104.899 43.4922C104.02 43.9844 103.001 44.1602 101.946 44.1602C99.7662 44.1602 97.5162 43.3516 96.3912 42.8945C95.8287 42.6836 95.5475 42.0156 95.7936 41.4531C96.0397 40.8555 96.6725 40.5742 97.2701 40.8203C99.9772 41.9453 102.544 42.1914 103.809 41.5234C104.301 41.2422 104.547 40.8203 104.653 40.2227C104.934 38.7109 104.02 38.2187 101.032 37.3398C98.5358 36.6367 95.1256 35.6523 95.7936 31.9609C95.9694 30.8359 96.6022 29.8516 97.5865 29.2539C99.1686 28.1992 101.63 28.1289 104.829 28.9727C105.426 29.1484 105.778 29.7461 105.637 30.3437C105.462 30.9414 104.864 31.293 104.266 31.1523C101.067 30.3086 99.5201 30.6602 98.7819 31.1172C98.36 31.4336 98.0787 31.8203 98.0084 32.3125C97.7272 33.8242 98.6412 34.3164 101.63 35.1953C104.126 35.8984 107.536 36.8828 106.868 40.6094Z" fill="#6CC5E9"/>
<path d="M121.913 39.9062C122.687 39.9062 123.003 40.6094 123.003 41.0312C123.003 41.8398 120.648 44.1602 117.202 44.1602C112.386 44.1602 109.503 40.0117 109.503 36.2852C109.503 32.6289 112.316 28.4102 117.202 28.4102C120.718 28.4102 123.003 30.7656 123.003 31.5391C123.003 31.9609 122.652 32.6641 121.878 32.6641C120.753 32.6641 120.261 30.6602 117.202 30.6602C113.757 30.6602 111.753 33.6484 111.753 36.2852C111.753 38.8867 113.722 41.9102 117.202 41.9102C120.296 41.875 120.788 39.9062 121.913 39.9062Z" fill="#6CC5E9"/>
<path d="M132.353 28.4102C127.994 28.4102 124.478 31.9258 124.478 36.2852C124.478 40.6094 127.994 44.1602 132.353 44.1602C136.677 44.1602 140.228 40.6094 140.228 36.2852C140.228 31.9258 136.677 28.4102 132.353 28.4102ZM132.353 41.875C129.224 41.875 126.728 39.3789 126.728 36.25C126.728 33.1562 129.224 30.6602 132.353 30.6602C135.447 30.6602 137.978 33.1914 137.978 36.25C137.978 39.3437 135.447 41.875 132.353 41.875Z" fill="#6CC5E9"/>
<path d="M155.168 29.5352C155.168 30.1328 154.641 30.6602 154.043 30.6602H149.543V43.0352C149.543 43.6328 149.016 44.125 148.418 44.125C147.785 44.125 147.293 43.6328 147.293 43.0352V30.6602H142.793C142.16 30.6602 141.668 30.1328 141.668 29.5352C141.668 28.9023 142.16 28.4102 142.793 28.4102H154.043C154.641 28.4102 155.168 28.9023 155.168 29.5352Z" fill="#6CC5E9"/>
<path d="M170.003 42.5781L164.378 29.0781C164.202 28.6562 163.78 28.4102 163.358 28.4102C162.901 28.4102 162.479 28.6562 162.304 29.0781L156.679 42.5781C156.432 43.1758 156.714 43.8086 157.276 44.0547C157.874 44.3008 158.507 44.0195 158.753 43.457L159.878 40.7852H166.804L167.929 43.457C168.104 43.8789 168.526 44.1602 168.983 44.1602C169.124 44.1602 169.265 44.125 169.405 44.0547C169.968 43.8086 170.249 43.1406 170.003 42.5781ZM160.792 38.5L163.358 32.4531L165.89 38.5H160.792Z" fill="#6CC5E9"/>
<path d="M183.818 40.6094C183.607 41.875 182.939 42.8945 181.849 43.4922C180.97 43.9844 179.951 44.1602 178.896 44.1602C176.716 44.1602 174.466 43.3516 173.341 42.8945C172.779 42.6836 172.497 42.0156 172.744 41.4531C172.99 40.8555 173.622 40.5742 174.22 40.8203C176.927 41.9453 179.494 42.1914 180.759 41.5234C181.251 41.2422 181.497 40.8203 181.603 40.2227C181.884 38.7109 180.97 38.2187 177.982 37.3398C175.486 36.6367 172.076 35.6523 172.744 31.9609C172.919 30.8359 173.552 29.8516 174.537 29.2539C176.119 28.1992 178.58 28.1289 181.779 28.9727C182.376 29.1484 182.728 29.7461 182.587 30.3437C182.412 30.9414 181.814 31.293 181.216 31.1523C178.017 30.3086 176.47 30.6602 175.732 31.1172C175.31 31.4336 175.029 31.8203 174.958 32.3125C174.677 33.8242 175.591 34.3164 178.58 35.1953C181.076 35.8984 184.486 36.8828 183.818 40.6094Z" fill="#6CC5E9"/>
<g clip-path="url(#clip0_191_608)">
<path d="M40.1746 22.2992C40.145 23.3318 39.2809 24.1225 38.248 24.1366C37.7032 24.144 37.1583 24.1544 36.6135 24.1706C35.289 24.2048 35.0396 23.2637 34.4977 22.0658C33.6377 20.3546 32.2702 18.9171 31.1521 17.2829C30.335 16.0936 29.9222 16.2219 29.4233 17.5653C29.3287 17.8391 29.2255 18.1214 29.1739 18.4038C28.8213 20.4829 28.4343 22.5535 28.159 24.6412C28.0472 25.5225 27.772 26.2669 27.213 26.9599C25.2262 29.4498 24.2973 32.3075 24.1941 35.4647C24.1416 37.2671 24.3809 38.9196 24.9354 40.4123C25.4361 41.76 24.8294 43.4491 23.4162 43.7135C20.4068 44.2766 17.3781 44.5499 14.2861 44.2861C11.2415 44.0294 8.36027 43.2594 5.88328 41.3856C3.6213 39.6744 2.27099 37.3471 1.38512 34.7203C-0.0683898 30.3909 -0.111393 25.9332 0.0864225 21.4326C0.31004 16.3588 1.47973 11.5075 3.70731 6.93852C4.27495 5.78344 5.03181 4.71392 5.78867 3.67007C6.1499 3.18237 6.68314 2.78879 7.19918 2.44654C7.98184 1.94173 8.44628 2.01873 8.83331 2.85724C9.45256 4.16633 10.0202 5.50964 10.433 6.88718C11.0265 8.91499 11.4565 10.9941 11.9726 13.0476C12.136 13.6722 12.4198 14.2711 12.5574 14.8957C12.738 15.6829 13.2455 15.9139 13.9679 15.8968C16.2987 15.8626 18.6295 15.8797 20.9603 15.7941C22.6116 15.7342 24.2629 15.546 25.9143 15.4348C26.3701 15.4091 26.5335 15.2209 26.6023 14.7503C27.1184 10.9257 27.6086 7.10109 28.7955 3.40483C29.0621 2.56633 29.4233 1.72782 29.8878 0.974883C30.5586 -0.111748 31.4273 -0.265759 32.5282 0.384509C33.9215 1.21446 34.8418 2.47221 35.59 3.85831C36.2781 5.13317 36.8543 6.46793 37.4822 7.77702C39.3006 12.479 40.3182 17.3035 40.1746 22.2992Z" fill="#6CC5E9"/>
<path d="M54.1068 38.2802C53.0231 42.7465 50.1333 45.6813 45.8072 47.076C41.1972 48.5647 36.6044 48.1027 32.8804 46.7679C30.4636 45.7412 28.666 44.4064 27.4533 42.7808C27.3071 42.584 27.1609 42.3786 27.0319 42.1733C25.8708 40.3765 25.3634 38.2631 25.4408 35.8417C25.5268 32.9669 26.3782 30.3658 28.1844 28.107C28.6832 27.4738 28.9326 26.7979 29.0445 25.9936C29.2853 24.0941 29.6465 22.2118 29.9647 20.3294C30.0077 20.0642 30.1023 19.8075 30.1969 19.5594C30.6442 18.3444 31.0226 18.2246 31.7623 19.3027C32.8201 20.8514 33.792 22.4856 34.5403 24.1883C34.9187 25.0524 35.7788 25.5915 36.7249 25.5658C37.4989 25.5401 38.2816 25.5316 39.0556 25.5316C39.3481 25.523 39.6319 25.523 39.9243 25.523C41.137 25.5059 42.3583 25.5145 43.571 25.5145C44.4311 25.5145 44.9127 25.138 45.3169 24.3508C46.2372 22.554 47.2177 21.2364 48.2584 19.4995C48.4476 19.1915 48.8346 18.5326 49.1442 18.2931C49.2646 18.199 49.4453 18.199 49.5571 18.3102C49.8753 18.6353 50.2537 18.9433 50.4085 19.3284C50.9934 20.7145 51.174 22.1776 51.217 23.6492C51.2428 24.0941 51.2428 24.5391 51.2342 24.984C51.2256 26.0449 51.4578 26.9262 51.9997 27.8246C52.0427 27.9016 52.0943 27.9872 52.1459 28.0642C54.1756 31.1872 55.0013 34.6096 54.1068 38.2802Z" fill="#6CC5E9"/>
</g>
<defs>
<clipPath id="clip0_191_608">
<rect width="54.4681" height="48" fill="white"/>
</clipPath>
</defs>
</svg>
