<svg width="40" height="40" viewBox="0 0 40 40" fill="none" xmlns="http://www.w3.org/2000/svg">
<rect width="40" height="40" fill="#001952"/>
<path d="M35.8906 34.1094L29.125 27.3594C31.5128 24.5165 32.7109 20.8616 32.4695 17.1569C32.2281 13.4521 30.5657 9.98363 27.8291 7.47476C25.0925 4.96589 21.493 3.61036 17.7813 3.69089C14.0695 3.77142 10.5322 5.28179 7.907 7.907C5.28179 10.5322 3.77142 14.0695 3.69089 17.7813C3.61036 21.493 4.96589 25.0925 7.47476 27.8291C9.98363 30.5657 13.4521 32.2281 17.1569 32.4695C20.8616 32.7109 24.5165 31.5128 27.3594 29.125L34.1094 35.8906C34.3483 36.1216 34.6676 36.2508 35 36.2508C35.3323 36.2508 35.6517 36.1216 35.8906 35.8906C36.1253 35.6536 36.257 35.3336 36.257 35C36.257 34.6664 36.1253 34.3464 35.8906 34.1094V34.1094ZM6.25 18.125C6.25 15.7763 6.94645 13.4804 8.2513 11.5276C9.55614 9.57477 11.4108 8.05272 13.5806 7.15393C15.7505 6.25514 18.1382 6.01997 20.4417 6.47817C22.7452 6.93637 24.8611 8.06736 26.5219 9.7281C28.1826 11.3889 29.3136 13.5048 29.7718 15.8083C30.23 18.1118 29.9949 20.4995 29.0961 22.6694C28.1973 24.8392 26.6752 26.6939 24.7224 27.9987C22.7696 29.3035 20.4737 30 18.125 30C14.9768 29.9959 11.9588 28.7434 9.73267 26.5173C7.50657 24.2912 6.25413 21.2732 6.25 18.125V18.125Z" fill="#FE8A00"/>
</svg>
